<svg xmlns="http://www.w3.org/2000/svg" viewBox="0 0 848 256"><defs>
 <linearGradient id="body" x1="49" y1="40" x2="209" y2="223" gradientUnits="userSpaceOnUse"><stop stop-color="#eee1ff"/><stop offset=".27" stop-color="#ba98ee"/><stop offset=".53" stop-color="#8b61cf"/><stop offset=".75" stop-color="#75b3bc"/><stop offset="1" stop-color="#a6ead2"/></linearGradient>
 <radialGradient id="light" cx=".22" cy=".13" r=".73"><stop stop-color="#fff9ee" stop-opacity=".92"/><stop offset=".35" stop-color="#fff9ee" stop-opacity=".18"/><stop offset=".85" stop-color="#fff9ee" stop-opacity="0"/></radialGradient>
 <linearGradient id="cut" x1="82" y1="77" x2="176" y2="190" gradientUnits="userSpaceOnUse"><stop stop-color="#5d3a9c"/><stop offset=".5" stop-color="#7953b5"/><stop offset="1" stop-color="#609eaa"/></linearGradient>
 <clipPath id="shape"><path d="M216 64C194 35 165 24 131 26C73 29 31 69 29 125C27 180 64 224 118 230C159 235 196 218 220 189L181 156C166 174 150 183 129 180C101 177 83 155 86 128C88 103 107 85 132 84C152 83 168 90 178 104Z"/></clipPath>
 </defs><path d="M216 64C194 35 165 24 131 26C73 29 31 69 29 125C27 180 64 224 118 230C159 235 196 218 220 189L181 156C166 174 150 183 129 180C101 177 83 155 86 128C88 103 107 85 132 84C152 83 168 90 178 104Z" fill="url(#body)"/><g clip-path="url(#shape)"><path d="M178 104C164 79 146 68 123 70C91 72 67 96 67 129C67 165 93 194 128 194C152 194 170 183 181 156C166 174 150 183 129 180C101 177 83 155 86 128C88 103 107 85 132 84C152 83 168 90 178 104Z" fill="url(#cut)"/><path d="M216 64C194 35 165 24 131 26C73 29 31 69 29 125C27 180 64 224 118 230C159 235 196 218 220 189L181 156C166 174 150 183 129 180C101 177 83 155 86 128C88 103 107 85 132 84C152 83 168 90 178 104Z" fill="url(#light)"/><path d="M216 64C194 35 165 24 131 26C73 29 31 69 29 125" fill="none" stroke="#fff" stroke-opacity=".4" stroke-width="2"/></g><g color="#282338" transform="translate(294 47) scale(2.1)"><g fill="none" stroke="currentColor" stroke-width="8.8" stroke-linecap="round" stroke-linejoin="round"><path d="M49 16C42 8 34 5 25 7C11 9 4 21 4 39C4 57 12 69 27 71C35 72 44 69 50 63"/><path d="M99 35C94 29 90 27 82 28C70 29 63 38 63 50C63 63 70 72 82 72C90 72 95 69 99 63M99 29V72"/><path d="M120 72V29M120 43C124 32 133 27 143 29"/><path d="M159 30L176 71L193 30"/><path d="M210 49H247C247 37 240 28 229 28C216 28 209 38 209 50C209 64 218 72 231 72C237 72 243 70 247 66"/></g></g></svg>
